<?xml version="1.0" encoding="UTF-8"?>
<svg id="Layer_1" data-name="Layer 1" xmlns="http://www.w3.org/2000/svg" viewBox="0 0 428.89 300">
  <defs>
    <style>
      .cls-1 {
        stroke-width: 4px;
      }

      .cls-1, .cls-2, .cls-3 {
        stroke: #000;
      }

      .cls-1, .cls-3 {
        fill: none;
        stroke-linecap: round;
        stroke-linejoin: round;
      }

      .cls-4, .cls-5 {
        stroke-width: 0px;
      }

      .cls-2 {
        stroke-miterlimit: 10;
        stroke-width: 1.25px;
      }

      .cls-5 {
        fill: #231f20;
      }

      .cls-3 {
        stroke-width: 3.2px;
      }
    </style>
  </defs>
  <g>
    <path class="cls-5" d="m122.75,213.25c-.78.51-1.72.78-2.82.79-.75,0-1.42-.13-2.02-.42s-1.11-.7-1.53-1.21-.75-1.13-.97-1.83-.34-1.47-.34-2.3.12-1.66.36-2.42.59-1.42,1.04-1.98,1.02-1.01,1.68-1.34,1.42-.49,2.27-.49,1.66.18,2.37.55v1.52c-.76-.55-1.59-.83-2.47-.83-.62,0-1.17.13-1.66.39s-.89.61-1.22,1.05-.58.96-.76,1.55-.26,1.22-.26,1.88c0,.61.07,1.2.22,1.76s.37,1.05.67,1.48.69.77,1.15,1.02,1.01.38,1.64.38c.98,0,1.87-.32,2.66-.96v1.41Z"/>
    <path class="cls-5" d="m134.03,213.77v-6.73c0-1.28-.23-2.23-.69-2.83s-1.18-.91-2.16-.91c-.46,0-.9.09-1.32.28s-.78.45-1.1.81-.56.78-.75,1.28-.28,1.07-.28,1.71v6.41h-1.43v-16.95h1.43v7.48h.04c.89-1.5,2.18-2.25,3.85-2.25,1.27,0,2.23.39,2.87,1.17s.96,1.94.96,3.47v7.08h-1.43Z"/>
    <path class="cls-5" d="m139.65,199.42c-.28,0-.51-.1-.72-.29s-.3-.44-.3-.74.1-.53.3-.72.44-.29.72-.29c.14,0,.28.02.4.07s.24.12.33.21.17.2.22.32.08.26.08.41-.03.28-.08.4-.13.24-.22.33-.21.17-.33.22-.26.08-.41.08Zm-.7,14.35v-11.45h1.43v11.45h-1.43Z"/>
    <path class="cls-5" d="m143.86,213.77v-16.95h1.43v16.95h-1.43Z"/>
    <path class="cls-5" d="m157.61,213.77v-2.01h-.04c-.38.72-.92,1.28-1.63,1.68s-1.5.6-2.4.6c-.72,0-1.37-.13-1.95-.4s-1.09-.65-1.5-1.15-.74-1.1-.97-1.81-.34-1.51-.34-2.4.12-1.77.37-2.53.6-1.42,1.06-1.97,1.01-.97,1.65-1.27,1.36-.45,2.15-.45c1.65,0,2.83.66,3.54,1.98h.04v-7.21h1.43v16.95h-1.43Zm0-6.91c0-.5-.09-.97-.26-1.4s-.41-.81-.72-1.13-.67-.57-1.1-.76-.9-.28-1.41-.28c-.57,0-1.09.11-1.57.34s-.89.55-1.22.97-.6.93-.79,1.54-.29,1.29-.29,2.06c0,.72.09,1.37.26,1.95s.42,1.06.73,1.45.7.7,1.13.91.93.31,1.46.31c.58,0,1.11-.1,1.57-.31s.86-.5,1.19-.86.57-.79.75-1.29.26-1.02.26-1.58v-1.91Z"/>
    <path class="cls-5" d="m168.2,203.78c-.34-.25-.77-.37-1.3-.37-.38,0-.72.07-1.01.22s-.55.34-.77.59-.41.53-.56.86-.28.66-.37,1.01-.16.7-.2,1.06-.06.7-.06,1.02v5.6h-1.42v-11.45h1.42v2.45h.04c.13-.42.3-.79.51-1.12s.44-.61.71-.84.56-.4.88-.52.65-.18,1-.18c.23,0,.44.01.62.04s.35.07.5.13v1.5Z"/>
    <path class="cls-5" d="m171.14,208.3c0,.7.1,1.33.28,1.89s.44,1.03.77,1.42.74.68,1.22.89,1.02.31,1.63.31c1.29,0,2.51-.45,3.66-1.35v1.41c-1.1.78-2.42,1.17-3.98,1.17-.77,0-1.46-.13-2.09-.4s-1.16-.66-1.6-1.17-.78-1.14-1.02-1.88-.36-1.6-.36-2.55c0-.86.13-1.65.39-2.38s.62-1.36,1.08-1.9,1.01-.95,1.64-1.25,1.33-.45,2.08-.45,1.39.13,1.96.39,1.04.62,1.43,1.1.68,1.06.88,1.74.3,1.45.3,2.3v.72h-8.27Zm6.8-1.25c-.02-1.19-.31-2.12-.85-2.77s-1.3-.98-2.27-.98c-.48,0-.93.09-1.35.26s-.78.42-1.09.74-.57.72-.78,1.19-.35.99-.43,1.57h6.76Z"/>
    <path class="cls-5" d="m190.62,213.77v-6.6c0-2.59-.94-3.88-2.82-3.88-.5,0-.96.1-1.39.3s-.79.47-1.1.82-.55.77-.73,1.25-.26,1-.26,1.56v6.55h-1.43v-11.45h1.43v1.99h.04c.85-1.51,2.13-2.26,3.84-2.26,1.25,0,2.21.41,2.86,1.22s.98,1.99.98,3.52v6.98h-1.43Z"/>
    <path class="cls-5" d="m196.76,202.61h-1.07l1.32-5.01h1.41l-1.65,5.01Z"/>
    <path class="cls-5" d="m201.9,211.71c.22.17.45.32.7.46s.51.25.78.35.54.17.81.22.53.07.78.07c1.7,0,2.55-.64,2.55-1.91,0-.29-.06-.54-.18-.75s-.29-.41-.51-.58-.49-.34-.81-.49-.67-.31-1.06-.47c-.53-.22-.98-.44-1.36-.66s-.69-.47-.94-.73-.43-.56-.55-.87-.18-.68-.18-1.08c0-.51.11-.96.33-1.35s.52-.73.89-1.01.8-.49,1.29-.63,1-.22,1.54-.22c.99,0,1.86.19,2.59.56v1.51c-.86-.55-1.78-.83-2.77-.83-.36,0-.68.04-.98.13s-.55.22-.75.38-.37.36-.49.59-.17.48-.17.75.04.53.13.74.23.4.42.58.44.34.74.49.67.32,1.1.5c.55.22,1.03.45,1.43.67s.73.46,1,.72.45.54.58.86.19.68.19,1.1c0,.51-.11.97-.32,1.38s-.51.74-.88,1.02-.82.48-1.33.63-1.06.21-1.65.21c-1.16,0-2.13-.24-2.92-.73v-1.6Z"/>
    <path class="cls-5" d="m223.19,211.92v7.11h-1.43v-16.72h1.43v2.19h.04c.42-.8.99-1.41,1.71-1.83s1.52-.63,2.41-.63c.73,0,1.38.13,1.96.4s1.07.64,1.46,1.12.7,1.07.92,1.77.32,1.47.32,2.34c0,.95-.12,1.81-.36,2.59s-.58,1.45-1.03,2.01-.99.99-1.63,1.3-1.35.46-2.15.46c-1.61,0-2.81-.7-3.61-2.11h-.04Zm0-2.92c0,.52.09,1.01.26,1.47s.42.86.73,1.21.69.62,1.13.82.93.3,1.47.3c.57,0,1.09-.12,1.55-.36s.86-.59,1.18-1.03.57-.99.75-1.62.26-1.34.26-2.12c0-.67-.08-1.28-.25-1.82s-.4-1-.7-1.38-.67-.67-1.1-.87-.91-.3-1.44-.3c-.6,0-1.13.11-1.61.33s-.88.52-1.22.9-.59.83-.77,1.34-.27,1.05-.27,1.63v1.52Z"/>
    <path class="cls-5" d="m235.49,213.77v-16.95h1.43v16.95h-1.43Z"/>
    <path class="cls-5" d="m247.75,213.77v-2.04h-.04c-.37.73-.88,1.3-1.53,1.7s-1.37.6-2.19.6c-.55,0-1.05-.08-1.49-.23s-.82-.38-1.13-.67-.55-.63-.72-1.03-.25-.85-.25-1.33c0-1.04.32-1.86.96-2.48s1.61-1.02,2.91-1.2l3.48-.5c0-2.2-.85-3.3-2.56-3.3-1.33,0-2.57.49-3.71,1.46v-1.57c.24-.17.51-.33.81-.46s.62-.26.96-.36.68-.18,1.03-.23.7-.08,1.03-.08c1.27,0,2.24.36,2.89,1.07.65.72.98,1.78.98,3.2v7.45h-1.43Zm-2.95-5.56c-.51.07-.95.17-1.32.28s-.67.26-.91.45-.41.42-.53.7-.17.62-.17,1.03c0,.31.05.59.16.85s.26.49.47.68.45.34.75.44.63.16,1,.16c.51,0,.97-.1,1.4-.29s.79-.46,1.1-.81.55-.75.73-1.23.26-1,.26-1.55v-1.13l-2.95.41Z"/>
    <path class="cls-5" d="m257.63,215.85c-.45,1.12-.96,1.95-1.54,2.49s-1.29.81-2.11.81c-.41,0-.76-.05-1.04-.15v-1.34c.16.06.33.1.5.13s.34.04.51.04c.47,0,.88-.15,1.22-.44s.65-.74.9-1.34l1-2.35-4.41-11.39h1.59l3.28,9.07c.04.12.09.26.13.41s.08.3.12.45h.06c.04-.13.07-.26.11-.39s.08-.27.14-.43l3.48-9.11h1.51l-5.42,13.53Z"/>
    <path class="cls-5" d="m272.22,203.78c-.34-.25-.77-.37-1.3-.37-.38,0-.72.07-1.01.22s-.55.34-.77.59-.41.53-.56.86-.28.66-.37,1.01-.16.7-.2,1.06-.06.7-.06,1.02v5.6h-1.42v-11.45h1.42v2.45h.04c.13-.42.3-.79.51-1.12s.44-.61.71-.84.56-.4.88-.52.65-.18,1-.18c.23,0,.44.01.62.04s.35.07.5.13v1.5Z"/>
    <path class="cls-5" d="m279.16,214.02c-.85,0-1.61-.14-2.29-.42s-1.25-.68-1.73-1.2-.84-1.14-1.1-1.86-.38-1.52-.38-2.4c0-.95.13-1.81.4-2.56s.65-1.39,1.15-1.92,1.09-.93,1.79-1.2,1.48-.41,2.35-.41,1.57.14,2.24.41,1.23.67,1.69,1.18.82,1.14,1.06,1.88.37,1.58.37,2.52-.13,1.71-.39,2.44-.62,1.37-1.1,1.9-1.06.94-1.74,1.23-1.46.44-2.33.44Zm.11-10.75c-.63,0-1.19.11-1.7.32s-.94.53-1.3.94-.64.92-.83,1.52-.29,1.28-.29,2.04c0,.72.1,1.36.29,1.93s.47,1.07.82,1.48.78.72,1.29.94,1.07.33,1.7.33,1.21-.11,1.7-.32.91-.52,1.25-.93.6-.9.78-1.49.26-1.26.26-2.01c0-1.54-.34-2.72-1.03-3.54s-1.67-1.22-2.94-1.22Z"/>
    <path class="cls-5" d="m293.69,214.02c-.85,0-1.61-.14-2.29-.42s-1.25-.68-1.73-1.2-.84-1.14-1.1-1.86-.38-1.52-.38-2.4c0-.95.13-1.81.4-2.56s.65-1.39,1.15-1.92,1.09-.93,1.79-1.2,1.48-.41,2.35-.41,1.57.14,2.24.41,1.23.67,1.69,1.18.82,1.14,1.06,1.88.37,1.58.37,2.52-.13,1.71-.39,2.44-.62,1.37-1.1,1.9-1.06.94-1.74,1.23-1.46.44-2.33.44Zm.11-10.75c-.63,0-1.19.11-1.7.32s-.94.53-1.3.94-.64.92-.83,1.52-.29,1.28-.29,2.04c0,.72.1,1.36.29,1.93s.47,1.07.82,1.48.78.72,1.29.94,1.07.33,1.7.33,1.21-.11,1.7-.32.91-.52,1.25-.93.6-.9.78-1.49.26-1.26.26-2.01c0-1.54-.34-2.72-1.03-3.54s-1.67-1.22-2.94-1.22Z"/>
    <path class="cls-5" d="m317.12,213.76v-6.73c0-.69-.05-1.27-.16-1.74s-.27-.86-.49-1.16-.5-.51-.84-.65-.74-.2-1.21-.2c-.42,0-.81.1-1.19.3s-.7.47-.98.82-.5.75-.66,1.22-.24.98-.24,1.52v6.62h-1.43v-6.88c0-2.4-.92-3.6-2.76-3.6-.42,0-.82.1-1.19.29s-.68.46-.96.8-.48.75-.64,1.24-.23,1.01-.23,1.59v6.56h-1.43v-11.45h1.43v1.86h.04c.81-1.42,1.98-2.12,3.52-2.12.4,0,.78.06,1.14.18s.68.29.96.51.53.48.73.79.36.64.46,1.01c.4-.81.93-1.43,1.57-1.86s1.37-.64,2.19-.64c2.51,0,3.77,1.55,3.77,4.65v7.07h-1.43Z"/>
    <path class="cls-5" d="m341.47,213.76l-1.95-1.93c-1.47,1.48-3.24,2.21-5.3,2.21-.78,0-1.47-.11-2.1-.32s-1.15-.51-1.59-.89-.77-.84-1-1.37-.35-1.11-.35-1.73c0-1.97,1.23-3.54,3.68-4.72-1.18-1.45-1.77-2.71-1.77-3.8,0-.54.1-1.03.3-1.49s.48-.85.85-1.19.8-.6,1.29-.79,1.04-.29,1.64-.29c.55,0,1.05.08,1.5.25s.83.39,1.14.68.56.64.73,1.04.26.84.26,1.32c0,.51-.07.97-.2,1.38s-.35.8-.65,1.16-.68.7-1.16,1.02-1.05.64-1.73.96c.67.71,1.38,1.44,2.14,2.19s1.56,1.55,2.42,2.38c.2-.3.39-.63.55-.99s.31-.74.43-1.13.21-.8.28-1.21.11-.82.12-1.22h1.38c-.04,2.02-.67,3.85-1.89,5.5.4.4.85.84,1.35,1.33s1.06,1.04,1.69,1.66h-2.08Zm-2.81-2.83c-.89-.87-1.74-1.72-2.54-2.54s-1.6-1.64-2.36-2.45c-1.07.51-1.86,1.06-2.35,1.65s-.74,1.28-.74,2.06c0,.47.09.9.26,1.29s.42.72.73.99.69.48,1.13.64.93.23,1.47.23c1.68,0,3.15-.62,4.39-1.86Zm-4.45-6.54c.57-.26,1.05-.52,1.45-.79s.72-.54.98-.82.44-.58.56-.89.18-.64.18-1c0-.33-.06-.63-.17-.9s-.27-.51-.48-.7-.44-.35-.7-.46-.56-.16-.87-.16c-.4,0-.75.06-1.07.19s-.59.3-.82.53-.4.5-.52.81-.18.65-.18,1.02c0,.88.55,1.94,1.65,3.18Z"/>
    <path class="cls-5" d="m362.58,213.24c-.85.51-1.88.78-3.09.79-.82,0-1.56-.13-2.21-.42s-1.22-.7-1.68-1.21-.82-1.13-1.06-1.83-.37-1.47-.37-2.3.13-1.66.39-2.42.64-1.42,1.14-1.98,1.11-1.01,1.83-1.34,1.55-.49,2.48-.49,1.81.18,2.59.55v1.52c-.83-.55-1.74-.83-2.71-.83-.68,0-1.28.13-1.81.39s-.97.61-1.34,1.05-.64.96-.83,1.55-.29,1.22-.29,1.88c0,.61.08,1.2.24,1.76s.41,1.05.74,1.48.75.77,1.26,1.02,1.1.38,1.79.38c1.07,0,2.04-.32,2.91-.96v1.41Z"/>
    <path class="cls-5" d="m373.44,213.76v-2.04h-.04c-.37.73-.88,1.3-1.53,1.7s-1.37.6-2.19.6c-.55,0-1.05-.08-1.49-.23s-.82-.38-1.13-.67-.55-.63-.72-1.03-.25-.85-.25-1.33c0-1.04.32-1.86.96-2.48s1.61-1.02,2.91-1.2l3.48-.5c0-2.2-.85-3.3-2.56-3.3-1.33,0-2.57.49-3.71,1.46v-1.57c.24-.17.51-.33.81-.46s.62-.26.96-.36.68-.18,1.03-.23.7-.08,1.03-.08c1.27,0,2.24.36,2.89,1.07s.98,1.78.98,3.2v7.45h-1.43Zm-2.95-5.56c-.51.07-.95.17-1.32.28s-.67.26-.91.45-.41.42-.53.7-.17.62-.17,1.03c0,.31.05.59.16.85s.26.49.47.68.45.34.75.44.63.16,1,.16c.51,0,.97-.1,1.4-.29s.79-.46,1.1-.81.55-.75.73-1.23.26-1,.26-1.55v-1.13l-2.95.41Z"/>
    <path class="cls-5" d="m385.04,198.16c-.32-.21-.73-.31-1.24-.31-1.34,0-2.01.88-2.01,2.63v1.83h2.85v1.25h-2.85v10.2h-1.43v-10.2h-2v-1.25h2v-1.92c0-.57.07-1.09.22-1.56s.36-.86.64-1.2.64-.59,1.07-.77.92-.27,1.48-.27.96.07,1.27.21v1.35Z"/>
    <path class="cls-5" d="m395.21,198.16c-.32-.21-.73-.31-1.24-.31-1.34,0-2.01.88-2.01,2.63v1.83h2.85v1.25h-2.85v10.2h-1.43v-10.2h-2v-1.25h2v-1.92c0-.57.07-1.09.22-1.56s.36-.86.64-1.2.64-.59,1.07-.77.92-.27,1.48-.27.96.07,1.27.21v1.35Z"/>
    <path class="cls-5" d="m398.15,208.29c0,.7.1,1.33.28,1.89s.44,1.03.77,1.42.74.68,1.22.89,1.02.31,1.63.31c1.29,0,2.51-.45,3.66-1.35v1.41c-1.1.78-2.42,1.17-3.98,1.17-.77,0-1.46-.13-2.09-.4s-1.16-.66-1.6-1.17-.78-1.14-1.02-1.88-.36-1.6-.36-2.55c0-.86.13-1.65.39-2.38s.62-1.36,1.08-1.9,1.01-.95,1.64-1.25,1.33-.45,2.08-.45,1.39.13,1.96.39,1.04.62,1.43,1.1.68,1.06.88,1.74.3,1.45.3,2.3v.72h-8.27Zm6.8-1.25c-.02-1.19-.31-2.12-.85-2.77s-1.3-.98-2.27-.98c-.48,0-.93.09-1.35.26s-.78.42-1.09.74-.57.72-.78,1.19-.35.99-.43,1.57h6.76Z"/>
  </g>
  <g>
    <path class="cls-5" d="m118.57,112.5v72.62h-3.5v-79.49l13.94,10.24,13.94-10.24v79.49h-3.44v-72.62l-10.51,7.66-10.44-7.66Z"/>
    <path class="cls-5" d="m156.62,185.12v-9.12h-4.03v-3.37h4.03v-32.71c0-6.74,1.19-12.58,3.57-17.51,1.94-3.96,4.6-7.25,8-9.85,2.99-2.11,5.64-3.5,7.93-4.16,2.29-.66,3.54-.97,3.77-.92l1.92-.2v77.84h-3.37v-9.12h-18.43v9.12h-3.37Zm3.37-45.19v32.71h18.43v-61.45c-2.16.44-4.93,1.83-8.33,4.16-6.74,5.24-10.11,13.44-10.11,24.58Z"/>
    <path class="cls-5" d="m194.95,112.5v72.62h-3.5v-79.49l13.94,10.24,13.94-10.24v79.49h-3.44v-72.62l-10.51,7.66-10.44-7.66Z"/>
    <path class="cls-5" d="m250.78,185.12v-9.12s-18.43,0-18.43,0v9.12h-3.37v-77.84s1.92.2,1.92.2c.22-.04,1.48.26,3.77.92,2.29.66,4.93,2.05,7.93,4.16,3.39,2.6,6.06,5.88,7.99,9.85,2.38,4.93,3.57,10.77,3.57,17.51v32.71s4.03,0,4.03,0v3.37h-4.03s0,9.12,0,9.12h-3.37Zm-10.11-69.77c-3.39-2.33-6.17-3.72-8.32-4.16v61.45s18.43,0,18.43,0v-32.71c0-11.14-3.37-19.34-10.11-24.58Z"/>
    <path class="cls-5" d="m295.51,127.43c-1.5,0-2.93.22-4.29.66l-.07,57.02h-3.5v-77.84h3.5v16.25l16.32-17.25,2.51,2.38-14.6,15.53c4.36-.04,7.98,1.52,10.87,4.69,2.88,3.17,4.33,7.03,4.33,11.56v44.67h-3.44v-44.67c0-3.61-1.14-6.68-3.4-9.22-2.27-2.53-5.01-3.8-8.23-3.8Z"/>
    <path class="cls-5" d="m338.14,181.62v3.5h-17.91v-77.84h3.5v74.33h14.4Z"/>
    <path class="cls-5" d="m366.89,174.15v-66.87h3.44v66.87c0,3.39-1.1,6.29-3.3,8.69-2.2,2.4-4.85,3.6-7.93,3.6s-5.79-1.2-7.99-3.6c-2.2-2.4-3.3-5.3-3.3-8.69v-66.87h3.5v66.87c0,2.42.76,4.49,2.28,6.21,1.52,1.72,3.36,2.58,5.52,2.58s3.94-.86,5.49-2.58c1.54-1.72,2.31-3.79,2.31-6.21Z"/>
    <path class="cls-5" d="m399.28,177.12c-5.07,5.33-10.93,7.99-17.58,7.99h-1.72v-77.84h1.72c3.44,0,6.38,1.32,8.82,3.96,2.44,2.64,3.67,5.84,3.67,9.58,0,4.67-1.85,8.41-5.55,11.23,4.01,1.28,7.55,3.59,10.64,6.94,4.76,5.51,7.13,11.85,7.13,19.03s-2.38,13.59-7.13,19.1Zm-15.54-66.34v20.02c2.07-.53,3.79-1.71,5.15-3.53,1.37-1.83,2.05-3.97,2.05-6.44s-.68-4.69-2.05-6.54c-1.37-1.85-3.08-3.02-5.15-3.5Zm19.43,47.24c0-6.21-1.85-11.54-5.55-15.99-3.7-4.45-8.33-6.98-13.88-7.6v47.24c5.55-.62,10.18-3.15,13.88-7.6,3.7-4.45,5.55-9.8,5.55-16.06Z"/>
  </g>
  <g>
    <path class="cls-1" d="m44.4,79.25l6.82,27.47-6.82-27.47Z"/>
    <g>
      <path class="cls-4" d="m101.81,172.2c-5.34-6.72-11.4-12.65-19.02-16.84.03-.08.06-.19.12-.28,4.3-6.43,6.06-13.5,5.2-21.18-.11-1.02.19-1.27,1.03-1.59,5.85-2.22,9.57-8.31,8.76-14.47-.76-5.75-3.98-9.7-9.46-11.48-5.61-1.82-10.59-.52-14.63,3.89-.35.38-.55.53-1.07.21-3.76-2.29-7.91-4.13-12.28-4.56l-4.39-.08v4.43c2.86-.06,5.83.31,8.88,1.25,10.22,3.16,16.52,10.26,18.79,20.79.17.79.33,1.6.39,2.41.07.96.02,1.92.02,2.89-.03,8.21-3.09,15.08-9.28,20.53-.27.23-.46.34-.65.34-.49.66-.99,1.28-1.58,1.84.52.4,1.05.79,1.55,1.22.73.62,1.38,1.35,1.95,2.13,3.71,3.88,6.02,8.27,7.12,13.32.36,1.63.46,3.3.58,4.96.05.77-.19.88-.87.69-8.94-2.44-17.54,2.45-20.96,10.21-2.25,5.11-2.06,10.2.42,15.21.16.32.46.6.36,1.03-2.24.53-4.48.76-6.72.71v4.04c2.9.06,5.8-.3,8.7-1.1.64-.17,1.04-.06,1.54.4,3.16,2.9,6.86,4.54,11.19,4.74,10.9.52,21.17-9.4,18.47-21.62-.17-.76.03-1.04.74-1.36,5.33-2.42,8.16-6.63,8.61-12.44.3-3.91-1.14-7.25-3.51-10.24Zm-24.54-58.51c-.54-.46-.56-.7-.07-1.18,1.96-1.87,4.27-2.85,6.15-2.88,5.51.02,9.48,3.23,10.36,7.73.94,4.79-1.33,9.17-5.7,11.08-.67.29-.94.29-1.19-.49-1.79-5.68-5.02-10.42-9.55-14.26Zm.9,100.15c-7.43-.02-13.63-6.38-13.62-13.96.02-7.65,6.34-13.89,14.08-13.88,7.43,0,13.77,6.43,13.72,13.88-.05,7.93-6.2,13.98-14.18,13.95Zm17.31-22.77c-.86.41-1.3.34-1.8-.54-1.15-2.02-2.72-3.72-4.64-5.02-.91-.61-1.36-1.25-1.13-2.33.04-.21,0-.44,0-.67-.17-8.26-2.99-15.45-8.63-21.52-.23-.24-1.05-.47-.46-.97.53-.45.74-1.58,1.91-1.04,1.76.81,3.4,1.8,4.94,2.95,5.19,3.9,9.83,8.37,13.59,13.66,3.88,5.46,2.05,12.66-3.78,15.47Z"/>
      <path class="cls-4" d="m68.58,134.37c-1.83-.01-3.31-1.49-3.32-3.3,0-1.84,1.55-3.38,3.39-3.36,1.9.02,3.31,1.5,3.28,3.43-.03,1.84-1.48,3.24-3.35,3.23Z"/>
      <path class="cls-4" d="m59.1,135.01c-.73-.21-1.46-.3-2.2-.34,0-.01,0-.02,0-.03-.1,0-.2.02-.31.02-.06,0-.12,0-.18-.01-.39,1.39-.66,2.77-.85,4.16.34-.07.68-.13,1.03-.14,1.2.04,2.39.45,3.17,1.28,1.04,1.09,1.04,2.49-.02,3.56-.87.88-1.95,1.25-3.15,1.31-.47-.02-.92-.11-1.35-.24.07,4.57.77,9.13,1.34,13.7.08,0,.17,0,.17-.01.9-.15,1.62-.9,1.66-2.08.07-2.04.06-4.08,0-6.12-.03-.94.13-1.44,1.19-1.79,3.12-1.03,5.06-3.82,4.95-6.77-.11-3.04-2.25-5.57-5.46-6.51Z"/>
    </g>
    <g>
      <path class="cls-2" d="m35.6,117.6c.86-2.55,1.71-4.98,2.5-7.43.27-.85.9-.51,1.38-.51,5.64-.02,11.28-.02,16.92-.02v-3.2c-.13,0-.27,0-.4,0-1.07,0-2.33.3-3.15-.16-.79-.45-.49-1.85-.71-2.82-2.51-10.8-13.12-17.16-23.3-15.62-11.19,1.7-19.41,13.28-16.77,24.27,2,8.32,7.15,13.52,15.64,15.15,1.05.2,1.19.41.8,1.4-.81,2.08-1.48,4.21-2.15,6.34-1.25,3.96-3.02,7.81-3.07,12.06-.11,8.59,3.38,15.37,10.5,20.21,4.55,3.09,9.1,6.18,13.74,9.14,5.07,3.23,7.27,8.03,7.46,13.76.21,6.17.02,12.35.07,18.53,0,1.03-.3,1.27-1.28,1.25-3.38-.05-6.77-.03-10.15-.02v3.27c4.26-.01,9.67,0,13.93,0v-31.04c-1.95-4.58-6.41-7.36-10.23-9.73-3.98-2.47-7.82-5.16-11.71-7.77-7.84-5.27-10.98-14.22-8.04-23.16,2.13-6.51,4.41-12.97,6.54-19.48l1.49-4.4Zm-20.72-8.54c-.3-9.14,5.32-16.19,14.3-17.97,9.12-1.8,18.76,4.95,20.04,14.05.13.9.03,1.41-1.12,1.34-1.73-.11-3.47-.03-5.2-.03-1.43,0-2.86,0-4.29,0-2.64,0-2.65,0-3.46,2.45-1.58,4.71-3.2,9.42-4.73,14.15-.3.93-.62,1.25-1.68,1.12-7.57-.92-13.6-7.44-13.84-15.11Z"/>
      <path class="cls-4" d="m22.19,109.2c-.71,0-1.43.03-2.14,0-1.01-.05-1.66-.61-1.69-1.61-.03-.93.61-1.56,1.51-1.61,1.58-.09,3.16-.08,4.74,0,.91.04,1.56.67,1.54,1.59-.01.98-.65,1.58-1.67,1.63-.76.04-1.53,0-2.29,0Z"/>
      <path class="cls-4" d="m21.96,99.12c-.01-.78.3-1.23.83-1.48.58-.28,1.21-.29,1.7.18,1.2,1.16,2.4,2.32,3.54,3.54.56.6.45,1.34-.07,1.94-.52.6-1.3.82-1.91.35-1.49-1.14-2.8-2.48-3.98-3.94-.14-.17-.11-.48-.13-.58Z"/>
      <path class="cls-4" d="m33.67,97.88c0,.76.04,1.53-.01,2.29-.07.97-.64,1.47-1.61,1.44-.89-.03-1.46-.52-1.49-1.41-.05-1.63-.06-3.26.01-4.89.04-.87.65-1.37,1.53-1.38.88-.01,1.47.46,1.54,1.36.07.86.01,1.73.01,2.59,0,0,.01,0,.02,0Z"/>
      <path class="cls-4" d="m21.96,116.05c-.05-.51.23-.87.56-1.19,1.01-1,2.01-2,3.02-3,.72-.71,1.55-.8,2.3-.13.77.69.73,1.55.03,2.28-1.05,1.1-2.14,2.16-3.24,3.21-.51.49-1.12.68-1.8.3-.58-.32-.92-.78-.86-1.47Z"/>
      <path class="cls-4" d="m43.08,98.65c.01-.78-.3-1.23-.83-1.48-.58-.28-1.21-.29-1.7.18-1.2,1.16-2.4,2.32-3.54,3.54-.56.6-.45,1.34.07,1.94.52.6,1.3.82,1.91.35,1.49-1.14,2.8-2.48,3.98-3.94.14-.17.11-.48.13-.58Z"/>
    </g>
  </g>
  <polygon class="cls-3" points="56.67 108.87 56.67 161.8 56.67 210.03 56.67 108.87"/>
</svg>